<svg width="24" height="24" viewBox="0 0 28 29" fill="none" xmlns="http://www.w3.org/2000/svg">
<path d="M13.6816 21.9882C12.215 21.9882 10.7814 21.549 9.56208 20.7262C8.3427 19.9034 7.39232 18.7339 6.8311 17.3657C6.26989 15.9974 6.12305 14.4918 6.40915 13.0392C6.69526 11.5867 7.40146 10.2524 8.43845 9.20522C9.47544 8.15799 10.7966 7.44481 12.235 7.15588C13.6733 6.86695 15.1642 7.01524 16.5191 7.582C17.874 8.14876 19.0321 9.10852 19.8468 10.3399C20.6616 11.5713 21.0965 13.0191 21.0965 14.5001C21.0965 15.4834 20.9047 16.4572 20.532 17.3657C20.1594 18.2742 19.6132 19.0996 18.9247 19.795C18.2362 20.4903 17.4187 21.0419 16.5191 21.4182C15.6195 21.7945 14.6553 21.9882 13.6816 21.9882ZM12.4463 0.772217H14.9177V4.51626H12.4463V0.772217ZM12.4463 24.4848H14.9177V28.2289H12.4463V24.4848ZM3.19604 5.6756L4.94072 3.91369L7.55774 6.55655L5.81306 8.31846L3.19604 5.6756ZM19.8028 22.4436L21.5475 20.6817L24.1645 23.3246L22.4198 25.0865L19.8028 22.4436ZM22.4198 3.91017L24.1645 5.67207L21.5475 8.31493L19.8028 6.55303L22.4198 3.91017ZM5.81742 20.6817L7.5621 22.4436L4.94508 25.0865L3.2004 23.3246L5.81742 20.6817ZM27.277 13.2562V15.7484H23.5695V13.2527L27.277 13.2562ZM3.79621 13.2562V15.7484H0.0878906V13.2527L3.79621 13.2562Z" fill="#EAF6FF"/>
</svg>
